<?xml version="1.0" standalone="no"?>
<!DOCTYPE svg PUBLIC "-//W3C//DTD SVG 20010904//EN"
 "http://www.w3.org/TR/2001/REC-SVG-20010904/DTD/svg10.dtd">
<svg version="1.0" xmlns="http://www.w3.org/2000/svg"
 width="12.000000pt" height="12.000000pt" viewBox="0 0 512.000000 512.000000"
 preserveAspectRatio="xMidYMid meet">

<g transform="translate(0.000000,512.000000) scale(0.100000,-0.100000)"
fill="#ffffff" stroke="none">
<path d="M2325 5109 c-1081 -101 -1981 -870 -2245 -1919 -265 -1054 156 -2155
1055 -2757 860 -576 1990 -576 2850 0 392 262 723 653 910 1076 542 1222 72
2636 -1092 3290 -432 243 -975 357 -1478 310z m565 -294 c750 -113 1383 -575
1715 -1250 158 -321 229 -634 229 -1005 0 -371 -71 -683 -229 -1005 -332 -677
-963 -1135 -1725 -1252 -158 -24 -482 -24 -640 0 -938 144 -1672 810 -1894
1718 -46 190 -60 317 -60 539 0 371 71 682 229 1005 355 725 1047 1193 1875
1269 89 8 397 -4 500 -19z"/>
</g>
</svg>
