<?xml version="1.0" standalone="no"?>
<!DOCTYPE svg PUBLIC "-//W3C//DTD SVG 20010904//EN"
 "http://www.w3.org/TR/2001/REC-SVG-20010904/DTD/svg10.dtd">
<svg version="1.0" xmlns="http://www.w3.org/2000/svg"
 width="512.000000pt" height="512.000000pt" viewBox="0 0 512.000000 512.000000"
 preserveAspectRatio="xMidYMid meet">

<g transform="translate(0.000000,512.000000) scale(0.100000,-0.100000)"
fill="rgba(255, 192, 203, 0.548)" stroke="none">
<path d="M1201 4751 c-18 -5 -29 -20 -43 -61 -73 -211 -82 -438 -26 -627 l21
-73 -37 -41 c-93 -102 -179 -267 -224 -426 -26 -94 -27 -107 -27 -328 1 -175
5 -252 18 -322 80 -425 278 -703 622 -875 141 -71 360 -134 545 -158 52 -6
101 -14 108 -16 8 -2 -4 -24 -33 -59 -60 -74 -92 -139 -118 -243 l-22 -87 -75
-27 c-312 -110 -572 -23 -754 254 -105 160 -241 264 -388 294 -101 21 -198 1
-198 -41 0 -24 56 -80 129 -130 119 -80 209 -193 283 -354 22 -47 49 -106 61
-131 12 -24 60 -83 107 -131 96 -97 177 -143 315 -181 65 -17 108 -21 230 -22
83 0 179 6 214 13 34 7 66 10 69 7 3 -4 8 -113 10 -244 6 -300 -1 -324 -95
-357 -32 -12 61 -13 627 -9 745 5 1032 13 985 25 -38 10 -73 42 -80 72 -2 12
-6 238 -8 502 -3 453 -4 484 -24 556 -26 94 -68 178 -121 246 l-41 51 62 6
c114 13 311 57 428 96 513 171 768 523 820 1130 30 356 -48 641 -240 877 -46
57 -50 65 -40 90 61 160 54 444 -14 648 -28 82 -42 89 -151 75 -169 -23 -341
-92 -561 -225 l-110 -67 -118 26 c-230 51 -313 60 -602 60 -289 1 -375 -8
-616 -61 l-115 -25 -71 45 c-184 120 -404 215 -558 242 -94 16 -107 17 -144 6z"/>
</g>
</svg>
