<?xml version="1.0" standalone="no"?>
<!DOCTYPE svg PUBLIC "-//W3C//DTD SVG 20010904//EN"
 "http://www.w3.org/TR/2001/REC-SVG-20010904/DTD/svg10.dtd">
<svg version="1.0" xmlns="http://www.w3.org/2000/svg"
 width="512.000000pt" height="512.000000pt" viewBox="0 0 512.000000 512.000000"
 preserveAspectRatio="xMidYMid meet">

<g transform="translate(0.000000,512.000000) scale(0.100000,-0.100000)"
fill="#ffffff" stroke="none">
<path d="M4665 4716 c-27 -8 -403 -149 -835 -314 -432 -165 -1413 -539 -2180
-832 -767 -293 -1424 -546 -1459 -563 -69 -33 -140 -96 -166 -146 -25 -50 -30
-121 -11 -179 21 -62 97 -137 176 -174 30 -14 265 -86 522 -159 l467 -134 251
-720 c166 -475 264 -739 286 -777 43 -70 111 -132 184 -167 48 -23 68 -26 155
-26 84 0 109 4 152 24 83 37 122 69 423 346 156 143 286 260 291 260 4 0 189
-146 411 -325 221 -178 425 -339 451 -357 109 -74 272 -93 379 -45 90 39 176
138 213 242 9 25 179 846 378 1825 328 1618 361 1789 361 1875 -1 162 -56 260
-180 321 -78 38 -186 48 -269 25z m143 -298 c7 -7 12 -26 12 -43 0 -52 -720
-3588 -738 -3624 -46 -94 -70 -82 -420 199 -957 769 -1187 957 -1187 967 0 6
349 381 775 834 426 452 783 835 793 850 24 37 24 110 0 152 -20 35 -92 77
-131 77 -26 0 -141 -58 -1660 -834 l-972 -497 -450 128 c-247 70 -450 130
-450 133 0 3 289 115 643 249 353 135 847 323 1097 419 250 95 595 227 765
292 361 138 1823 695 1845 703 27 10 66 7 78 -5z m-1645 -1320 c-200 -210
-1037 -1104 -1047 -1121 -8 -12 -60 -209 -117 -437 -56 -228 -104 -420 -108
-427 -3 -6 -97 250 -209 569 -111 320 -201 582 -200 583 5 4 962 492 1323 675
198 101 364 187 370 191 5 5 14 9 19 9 6 0 -8 -19 -31 -42z m-650 -1607 c92
-74 167 -137 166 -140 -1 -9 -530 -493 -534 -489 -2 2 37 165 86 363 48 198
91 370 94 383 3 13 9 22 13 20 4 -2 83 -63 175 -137z"/>
</g>
</svg>
