<?xml version="1.0" standalone="no"?>
<!DOCTYPE svg PUBLIC "-//W3C//DTD SVG 20010904//EN"
 "http://www.w3.org/TR/2001/REC-SVG-20010904/DTD/svg10.dtd">
<svg version="1.0" xmlns="http://www.w3.org/2000/svg"
 width="512.000000pt" height="512.000000pt" viewBox="0 0 512.000000 512.000000"
 preserveAspectRatio="xMidYMid meet">

<g transform="translate(0.000000,512.000000) scale(0.100000,-0.100000)"
fill="#ffffff" stroke="none">
<path d="M2145 4014 c-97 -7 -221 -26 -270 -41 -85 -26 -190 -120 -171 -152 4
-5 23 -13 44 -17 92 -17 169 -69 204 -137 59 -116 86 -480 54 -737 -21 -170
-30 -209 -62 -271 -83 -166 -276 -32 -488 340 -76 132 -288 556 -335 669 -58
137 -76 162 -141 195 l-55 28 -415 -3 c-375 -3 -418 -5 -447 -21 -47 -25 -67
-60 -60 -105 6 -48 163 -398 279 -622 226 -436 418 -753 622 -1030 301 -407
434 -539 741 -735 143 -92 247 -143 375 -186 176 -59 252 -70 515 -76 261 -6
336 2 392 40 45 31 59 74 68 207 8 132 34 245 69 305 32 53 99 115 129 116
101 5 158 -37 370 -275 199 -223 272 -288 382 -341 50 -23 110 -47 135 -53 60
-14 870 2 922 17 52 16 108 71 109 107 4 99 -11 144 -80 249 -92 138 -170 226
-437 490 -284 281 -303 307 -304 401 0 79 37 139 286 469 351 465 491 690 530
848 23 93 10 138 -49 170 l-42 22 -505 -3 c-357 -3 -512 -7 -530 -15 -34 -16
-69 -75 -114 -187 -120 -299 -367 -730 -530 -924 -65 -77 -166 -156 -199 -156
-47 0 -86 30 -115 90 l-27 55 3 519 c3 559 1 575 -50 649 -51 72 -175 97 -508
102 -135 1 -267 1 -295 -1z"/>
</g>
</svg>
